<?xml version="1.0" encoding="UTF-8" standalone="no"?><!DOCTYPE svg PUBLIC "-//W3C//DTD SVG 1.1//EN" "http://www.w3.org/Graphics/SVG/1.1/DTD/svg11.dtd"><svg width="100%" height="100%" viewBox="0 0 1016 1081" version="1.1" xmlns="http://www.w3.org/2000/svg" xmlns:xlink="http://www.w3.org/1999/xlink" xml:space="preserve" xmlns:serif="http://www.serif.com/" style="fill-rule:evenodd;clip-rule:evenodd;stroke-linejoin:round;stroke-miterlimit:2;"><rect x="162.583" y="173.742" width="853.021" height="835.733" style="fill:#231f20;"/><rect x="179.9" y="191.058" width="818.388" height="801.1" style="fill:#dcddde;"/><path d="M259.421,746.05l-0,-64.925l-0.95,-29.804l-1.9,-28.208l0.375,-0l24.896,122.937l31.166,0l24.896,-122.937l0.375,-0l-2.279,34.595l-0.567,29.8l0,58.542l40.284,0l-0,-191.587l-54.159,-0l-24.133,119.475l-24.133,-119.475l-54.159,-0l0,191.587l40.288,0Zm180.371,-106.171c10.262,-0.8 16.721,14.634 16.721,35.121c-0,26.342 -6.459,37.788 -17.101,37.788c-10.074,-0 -17.104,-11.446 -17.104,-37.788c0,-15.696 3.992,-35.121 17.484,-35.121Zm-57.009,38.05c0,47.629 24.705,72.154 56.629,72.154c31.925,0 56.63,-23.991 56.63,-75.083c-0,-43.375 -21.663,-72.375 -56.821,-72.375c-33.634,0 -56.438,26.879 -56.438,75.304Zm118.234,68.121l39.525,0l-0,-71.05c-0,-17.825 3.233,-28.737 15.391,-28.737c11.213,-0 13.875,12.241 13.875,26.079l0,73.708l39.525,0l0,-83.554c0,-38.317 -12.35,-59.871 -38.575,-59.871c-15.012,0 -24.704,9.046 -33.637,25.808l-0,-21.816l-36.104,-0l-0,139.433Zm181.512,-39.65l-6.271,0c-11.021,0 -12.35,-4.521 -12.35,-17.292l0,-50.562l19,-0l0,-31.929l-19,-0l0,-43.375l-38.958,-0l-0,43.375l-14.633,-0l-0,31.929l14.062,-0l0,58.275c0,48.162 6.271,53.262 58.15,49.229l0,-39.65Zm43.933,-45.767c0,-14.9 6.651,-24.216 18.43,-24.216c9.312,-0 17.487,11.441 17.487,24.216l-35.917,0Zm75.438,28.205c0.571,-50.555 -21.658,-86.213 -58.525,-86.213c-31.929,0 -56.442,29.271 -56.442,75.038c0,46.829 24.705,72.42 56.625,72.42c23.188,0 48.271,-11.483 55.113,-46.075l-37.817,0c-2.85,8.246 -8.55,12.238 -14.821,12.238c-10.45,-0 -19.571,-10.913 -19.571,-27.408l75.438,-0Z" style="fill:#231f20;fill-rule:nonzero;"/><path d="M911.396,798.421c18.812,-0 31.979,5.004 39.5,15.046c7.516,10.046 11.258,28.671 11.258,55.908c0,27.196 -3.742,45.817 -11.258,55.821c-7.521,10.008 -20.688,15.012 -39.5,15.012c-18.775,0 -31.904,-4.966 -39.421,-14.891c-7.517,-9.925 -11.254,-28.588 -11.254,-55.942c-0,-27.358 3.737,-46.058 11.212,-56.025c7.475,-9.967 20.6,-14.929 39.463,-14.929Zm-0.046,24.1c-6.204,-0 -10.533,2.104 -12.908,6.354c-2.421,4.208 -3.613,14.292 -3.613,30.254l0,12.229c0,20.605 1.146,33.313 3.396,38.075c2.296,4.767 6.588,7.15 12.871,7.15c6.454,0 10.917,-2.225 13.296,-6.67c2.421,-4.488 3.608,-15.25 3.608,-32.4l-0,-10.242c-0,-20.292 -1.146,-32.838 -3.479,-37.604c-2.338,-4.763 -6.713,-7.146 -13.171,-7.146Zm-57.137,25.929l-31.855,0l0,-5.004c0,-7.146 -1.15,-12.388 -3.483,-15.8c-2.296,-3.417 -5.908,-5.125 -10.788,-5.125c-5.058,-0 -8.754,1.746 -11.091,5.279c-2.333,3.538 -3.479,9.333 -3.479,17.392l-0,46.379c-0,9.167 1.062,15.562 3.229,19.254c2.162,3.696 5.858,5.517 11.083,5.517c5.608,-0 9.558,-2.063 11.721,-6.229c2.213,-4.13 3.317,-11.992 3.317,-23.546l-0,-2.9l31.346,0.121c0.083,0.912 0.17,1.904 0.212,2.979c0.046,1.029 0.046,2.579 0.046,4.562c-0,16.675 -3.784,28.984 -11.388,36.967c-7.6,7.942 -19.371,11.912 -35.295,11.912c-18.055,0 -30.709,-4.966 -37.888,-14.929c-7.179,-9.966 -10.746,-28.629 -10.746,-55.904c0,-27.279 3.613,-45.942 10.834,-55.946c7.22,-10.004 19.833,-15.008 37.8,-15.008c15.845,-0 27.566,3.692 35.124,11.037c7.521,7.384 11.301,18.78 11.301,34.225l-0,4.767Zm-105.005,-17.55l0,105.692l-32.112,-0l-0,-85.679c-0,-8.063 -1.063,-13.663 -3.229,-16.796c-2.167,-3.138 -5.775,-4.725 -10.834,-4.725c-5.645,-0 -9.637,1.904 -12.016,5.675c-2.338,3.812 -3.525,10.525 -3.525,20.133l-0,81.392l-33.342,-0l-0,-134.596l32.108,-0l0,6.867c0,1.312 -0.171,2.7 -0.508,4.129c-0.342,1.471 -0.892,3.016 -1.617,4.725c4.888,-6.592 10.025,-11.434 15.421,-14.571c5.392,-3.138 11.425,-4.725 18.05,-4.725c10.025,-0 17.8,2.817 23.321,8.458c5.521,5.596 8.283,13.617 8.283,24.021Zm-108.912,10.4l-0,75.996c-0,3.533 0.379,6.871 1.1,9.887c0.767,3.017 1.996,6.155 3.737,9.409l-32.366,-0c-0.975,-1.546 -1.742,-3.334 -2.292,-5.279c-0.55,-1.984 -0.892,-4.171 -1.063,-6.592c-3.95,4.962 -8.791,8.775 -14.483,11.475c-5.65,2.662 -11.85,4.012 -18.562,4.012c-10.959,0 -19.454,-3.454 -25.571,-10.366c-6.071,-6.904 -9.129,-16.475 -9.129,-28.746c-0,-10.917 2.587,-19.654 7.816,-26.204c5.221,-6.55 15.842,-13.221 31.855,-19.971c1.741,-0.754 4.162,-1.788 7.349,-3.017c12.659,-5.125 18.984,-10.958 18.984,-17.55c-0,-4.608 -1.229,-8.021 -3.654,-10.325c-2.463,-2.262 -6.159,-3.412 -11.125,-3.412c-6.034,-0 -10.492,1.508 -13.384,4.525c-2.845,3.016 -4.245,7.741 -4.245,14.175l-0,2.7l-32.367,-0l-0,-2.7c-0,-13.779 4.079,-24.021 12.279,-30.692c8.154,-6.671 20.725,-10.004 37.717,-10.004c17.412,-0 29.691,3.175 36.783,9.487c7.092,6.313 10.621,17.392 10.621,33.192Zm-25.788,15.008l0,30.259c0,9.925 -2.291,17.708 -6.837,23.383c-4.542,5.679 -10.704,8.5 -18.392,8.5c-6.071,0 -10.746,-1.867 -14.058,-5.6c-3.313,-3.692 -4.971,-8.975 -4.971,-15.8c0,-7.071 2.55,-13.225 7.604,-18.467c5.054,-5.2 17.242,-12.625 36.654,-22.275Zm-117.533,-98.904l33.088,0l-0,27.954l-33.088,0l0,-27.954Zm0,44.592l33.088,-0l-0,134.596l-33.088,-0l0,-134.596Zm-122.721,-44.55l57.296,-0c16.696,-0 28.975,3.65 36.871,10.917c7.858,7.308 11.808,18.741 11.808,34.345c0,10.921 -1.954,19.496 -5.862,25.688c-3.905,6.237 -9.809,10.208 -17.796,11.992c9.387,1.787 16.483,6.116 21.279,12.987c4.804,6.867 7.221,16.158 7.221,27.95c-0,18.938 -4.246,32.875 -12.7,41.846c-8.45,8.937 -21.746,13.421 -39.796,13.421l-58.321,-0l0,-179.146Zm34.658,24.337l0,48.363l11.938,-0c9.046,-0 15.25,-1.825 18.604,-5.521c3.354,-3.692 5.054,-10.362 5.054,-20.05c0,-8.137 -1.575,-13.979 -4.712,-17.508c-3.188,-3.538 -8.413,-5.284 -15.717,-5.284l-15.167,0Zm0,72.342l0,56.979l14.696,0c9.305,0 15.8,-2.104 19.5,-6.354c3.696,-4.208 5.521,-11.554 5.521,-22.037c0,-10.68 -2,-18.105 -6.033,-22.313c-4.034,-4.171 -11.684,-6.275 -22.979,-6.275l-10.705,0Z" style="fill:#fff;"/><path d="M402.712,848.646l16.905,-0c13.041,-0 22.171,2.583 27.437,7.783c5.271,5.204 7.904,13.975 7.904,26.284c0,11.95 -2.466,20.608 -7.35,25.887c-4.883,5.321 -12.912,7.983 -24,7.983l-20.896,0l0,-67.937Zm0,-72.342l22.005,0c8.791,0 15.375,2.346 19.708,7.029c4.371,4.684 6.542,11.792 6.542,21.242c-0,11.238 -2.296,19.217 -6.925,23.942c-4.588,4.725 -12.317,7.108 -23.192,7.108l-18.138,0l0,-59.321Zm-22.129,-13.379l0,168.188l52.242,-0c16.142,-0 27.908,-3.971 35.171,-11.871c7.304,-7.9 10.962,-20.525 10.962,-37.917c0,-11.554 -2.55,-20.529 -7.691,-26.921c-5.138,-6.391 -13.55,-11.075 -25.146,-14.016c10.196,-2.859 17.417,-7.146 21.666,-12.784c4.205,-5.679 6.33,-13.975 6.33,-24.896c-0,-14.133 -3.317,-24.258 -9.9,-30.491c-6.584,-6.196 -17.371,-9.292 -32.409,-9.292l-51.225,0Zm28.329,91.2l0,56.979l14.696,0c9.305,0 15.8,-2.104 19.5,-6.354c3.696,-4.208 5.521,-11.554 5.521,-22.037c0,-10.68 -2,-18.105 -6.033,-22.313c-4.034,-4.171 -11.684,-6.275 -22.979,-6.275l-10.705,0Zm0,-72.342l0,48.363l11.938,-0c9.046,-0 15.25,-1.825 18.604,-5.521c3.354,-3.692 5.054,-10.362 5.054,-20.05c0,-8.137 -1.575,-13.979 -4.712,-17.508c-3.188,-3.538 -8.413,-5.284 -15.717,-5.284l-15.167,0Zm-34.658,-24.337l57.296,-0c16.696,-0 28.975,3.65 36.871,10.917c7.858,7.308 11.808,18.741 11.808,34.345c0,10.921 -1.954,19.496 -5.862,25.688c-3.905,6.237 -9.809,10.208 -17.796,11.992c9.387,1.787 16.483,6.116 21.279,12.987c4.804,6.867 7.221,16.158 7.221,27.95c-0,18.938 -4.246,32.875 -12.7,41.846c-8.45,8.937 -21.746,13.421 -39.796,13.421l-58.321,-0l0,-179.146Zm129.05,50.029l0,123.638l20.642,-0l-0,-123.638l-20.642,0Zm0,-44.592l0,16.875l20.642,0l-0,-16.875l-20.642,0Zm-6.329,39.113l33.088,-0l-0,134.596l-33.088,-0l0,-134.596Zm0,-44.592l33.088,0l-0,27.954l-33.088,0l0,-27.954Zm117.533,98.904l0,30.259c0,9.925 -2.291,17.708 -6.837,23.383c-4.542,5.679 -10.704,8.5 -18.392,8.5c-6.071,0 -10.746,-1.867 -14.058,-5.6c-3.313,-3.692 -4.971,-8.975 -4.971,-15.8c0,-7.071 2.55,-13.225 7.604,-18.467c5.054,-5.2 17.242,-12.625 36.654,-22.275Zm19.667,-15.008c0,-14.333 -3.054,-24.217 -9.129,-29.579c-6.117,-5.4 -16.738,-8.1 -31.9,-8.1c-14.525,-0 -25.146,2.542 -31.859,7.625c-6.712,5.079 -10.699,13.5 -11.933,25.292l19.792,-0c0.383,-6.75 2.633,-11.992 6.712,-15.763c4.038,-3.771 9.559,-5.637 16.521,-5.637c6.884,-0 12.192,1.625 15.975,4.883c3.779,3.254 5.646,7.862 5.646,13.858c0,8.892 -8.496,16.834 -25.442,23.742l-1.487,0.554c-15.671,6.354 -26.125,12.546 -31.304,18.583c-5.179,5.996 -7.775,14.134 -7.775,24.338c-0,10.642 2.508,18.942 7.521,24.896c5.012,5.996 12.062,8.975 21.066,8.975c6.454,-0 12.617,-1.471 18.392,-4.409c5.821,-2.979 11.212,-7.304 16.183,-13.025c0.679,2.384 1.359,4.73 2.125,6.95c0.721,2.267 1.571,4.446 2.463,6.63l20.429,-0c-0.679,-2.025 -1.146,-4.209 -1.484,-6.55c-0.341,-2.384 -0.512,-4.884 -0.512,-7.505l0,-75.758Zm-25.996,24.104c-12.908,6.588 -21.45,12.109 -25.608,16.517c-4.125,4.408 -6.204,9.529 -6.204,15.367c-0,5.004 1.15,8.891 3.483,11.591c2.337,2.742 5.65,4.088 9.937,4.088c6.034,-0 10.621,-2.184 13.721,-6.509c3.1,-4.329 4.671,-10.837 4.671,-19.416l0,-21.638Zm32.117,-24.104l-0,75.996c-0,3.533 0.379,6.871 1.1,9.887c0.767,3.017 1.996,6.155 3.737,9.409l-32.366,-0c-0.975,-1.546 -1.742,-3.334 -2.292,-5.279c-0.55,-1.984 -0.892,-4.171 -1.063,-6.592c-3.95,4.962 -8.791,8.775 -14.483,11.475c-5.65,2.662 -11.85,4.012 -18.562,4.012c-10.959,0 -19.454,-3.454 -25.571,-10.366c-6.071,-6.904 -9.129,-16.475 -9.129,-28.746c-0,-10.917 2.587,-19.654 7.816,-26.204c5.221,-6.55 15.842,-13.221 31.855,-19.971c1.741,-0.754 4.162,-1.788 7.349,-3.017c12.659,-5.125 18.984,-10.958 18.984,-17.55c-0,-4.608 -1.229,-8.021 -3.654,-10.325c-2.463,-2.262 -6.159,-3.412 -11.125,-3.412c-6.034,-0 -10.492,1.508 -13.384,4.525c-2.845,3.016 -4.245,7.741 -4.245,14.175l-0,2.7l-32.367,-0l-0,-2.7c-0,-13.779 4.079,-24.021 12.279,-30.692c8.154,-6.671 20.725,-10.004 37.717,-10.004c17.412,-0 29.691,3.175 36.783,9.487c7.092,6.313 10.621,17.392 10.621,33.192Zm102.708,-6.112c0,-10.759 -2.162,-18.663 -6.542,-23.705c-4.329,-5.041 -11.17,-7.583 -20.47,-7.583c-6.159,0 -12.021,1.825 -17.629,5.442c-5.605,3.65 -11.509,9.529 -17.755,17.666l0,-19.533l-20.133,0l-0,123.638l20.9,-0l0,-76.15c0,-11.08 1.783,-19.059 5.308,-23.946c3.525,-4.884 9.217,-7.342 17.117,-7.342c6.796,0 11.725,2.142 14.825,6.388c3.058,4.291 4.587,11.2 4.587,20.85l0,80.2l19.792,-0l0,-95.925Zm6.204,-4.288l0,105.692l-32.112,-0l-0,-85.679c-0,-8.063 -1.063,-13.663 -3.229,-16.796c-2.167,-3.138 -5.775,-4.725 -10.834,-4.725c-5.645,-0 -9.637,1.904 -12.016,5.675c-2.338,3.812 -3.525,10.525 -3.525,20.133l-0,81.392l-33.342,-0l-0,-134.596l32.108,-0l0,6.867c0,1.312 -0.171,2.7 -0.508,4.129c-0.342,1.471 -0.892,3.016 -1.617,4.725c4.888,-6.592 10.025,-11.434 15.421,-14.571c5.392,-3.138 11.425,-4.725 18.05,-4.725c10.025,-0 17.8,2.817 23.321,8.458c5.521,5.596 8.283,13.617 8.283,24.021Zm98.421,12.071l0,-2.346c0,-12.625 -3.183,-21.917 -9.558,-27.833c-6.413,-5.913 -16.392,-8.892 -30.029,-8.892c-16.013,0 -27.1,4.404 -33.3,13.263c-6.159,8.812 -9.259,26.241 -9.259,52.212c0,25.967 3.054,43.358 9.217,52.171c6.113,8.775 17.158,13.183 33.088,13.183c13.72,0 23.87,-3.258 30.454,-9.808c6.583,-6.55 9.895,-16.638 9.895,-30.175c0,-0.558 -0.037,-1.471 -0.125,-2.7c-0.087,-1.233 -0.125,-2.183 -0.125,-2.9l-18.904,-0l0,4.05c0,9.725 -1.741,16.917 -5.225,21.6c-3.483,4.687 -8.791,7.029 -15.929,7.029c-7.137,0 -12.317,-2.383 -15.587,-7.15c-3.23,-4.762 -4.846,-12.467 -4.846,-23.104l-0,-46.379c-0,-9.609 1.704,-16.717 5.1,-21.279c3.396,-4.567 8.667,-6.871 15.8,-6.871c6.583,-0 11.596,2.146 15.037,6.471c3.438,4.287 5.138,10.483 5.138,18.545l-0,0.913l19.158,-0Zm6.584,5.479l-31.855,0l0,-5.004c0,-7.146 -1.15,-12.388 -3.483,-15.8c-2.296,-3.417 -5.908,-5.125 -10.788,-5.125c-5.058,-0 -8.754,1.746 -11.091,5.279c-2.333,3.538 -3.479,9.333 -3.479,17.392l-0,46.379c-0,9.167 1.062,15.562 3.229,19.254c2.162,3.696 5.858,5.517 11.083,5.517c5.608,-0 9.558,-2.063 11.721,-6.229c2.213,-4.13 3.317,-11.992 3.317,-23.546l-0,-2.9l31.346,0.121c0.083,0.912 0.17,1.904 0.212,2.979c0.046,1.029 0.046,2.579 0.046,4.562c-0,16.675 -3.784,28.984 -11.388,36.967c-7.6,7.942 -19.371,11.912 -35.295,11.912c-18.055,0 -30.709,-4.966 -37.888,-14.929c-7.179,-9.966 -10.746,-28.629 -10.746,-55.904c0,-27.279 3.613,-45.942 10.834,-55.946c7.22,-10.004 19.833,-15.008 37.8,-15.008c15.845,-0 27.566,3.692 35.124,11.037c7.521,7.384 11.301,18.78 11.301,34.225l-0,4.767Zm57.52,-31.408c8.367,-0 14.188,2.741 17.459,8.258c3.271,5.521 4.929,18.742 4.929,39.667l-0,6.391c-0,22.95 -1.658,37.084 -4.975,42.446c-3.308,5.359 -9.342,8.021 -18.05,8.021c-8.538,0 -14.4,-2.821 -17.583,-8.5c-3.188,-5.637 -4.8,-19.812 -4.8,-42.442l-0,-11.95c-0,-17.312 1.695,-28.629 5.095,-33.912c3.4,-5.317 9.388,-7.979 17.925,-7.979Zm-0.383,-13.142c-16.692,0 -28.246,4.404 -34.658,13.183c-6.417,8.813 -9.646,26.246 -9.646,52.292c-0,25.888 3.187,43.275 9.6,52.092c6.371,8.854 17.971,13.262 34.704,13.262c16.867,0 28.504,-4.45 34.958,-13.304c6.496,-8.892 9.729,-26.246 9.729,-52.05c0,-25.808 -3.233,-43.2 -9.729,-52.096c-6.454,-8.933 -18.091,-13.379 -34.958,-13.379Zm0,18.621c-6.204,-0 -10.533,2.104 -12.908,6.354c-2.421,4.208 -3.613,14.292 -3.613,30.254l0,12.229c0,20.605 1.146,33.313 3.396,38.075c2.296,4.767 6.588,7.15 12.871,7.15c6.454,0 10.917,-2.225 13.296,-6.67c2.421,-4.488 3.608,-15.25 3.608,-32.4l-0,-10.242c-0,-20.292 -1.146,-32.838 -3.479,-37.604c-2.338,-4.763 -6.713,-7.146 -13.171,-7.146Zm0.046,-24.1c18.812,-0 31.979,5.004 39.5,15.046c7.516,10.046 11.258,28.671 11.258,55.908c0,27.196 -3.742,45.817 -11.258,55.821c-7.521,10.008 -20.688,15.012 -39.5,15.012c-18.775,0 -31.904,-4.966 -39.421,-14.891c-7.517,-9.925 -11.254,-28.588 -11.254,-55.942c-0,-27.358 3.737,-46.058 11.212,-56.025c7.475,-9.967 20.6,-14.929 39.463,-14.929Z" style="fill:#231f20;"/><path d="M578.617,1037.75l-0,30.217l10.512,-0l0,-30.217l-10.512,-0Zm10.512,-10.958l-10.512,-0l-0,7.379l10.512,-0l0,-7.379Zm35.271,2.783l-10.508,-0l-0,8.175l-5.409,-0l0,5.679l5.409,0l-0,18.346c-0,3.921 1.65,6.546 10.733,6.546l1.354,-0c1.65,-0 3.3,-0.063 4.954,-0.117l0,-6.029c-0.75,0.058 -1.504,0.112 -2.179,0.112c-4.279,0 -4.354,-0.683 -4.354,-2.441l0,-16.417l6.533,0l0,-5.679l-6.533,-0l0,-8.175Zm58.996,16.129c-0,-7.442 -10.283,-8.75 -15.913,-8.75c-8.187,0 -16.666,1.308 -17.871,10.567l10.134,-0c0.304,-1.759 1.204,-4.2 6.458,-4.2c2.704,-0 6.909,0.166 6.909,3.516c-0,1.709 -2.026,2.217 -3.68,2.392l-9.462,1.075c-6.679,0.742 -11.634,3.75 -11.634,9.658c0,6.246 6.159,8.809 12.163,8.809c7.133,-0 10.508,-2.504 12.913,-4.384c0.224,1.709 0.374,2.163 0.979,3.58l11.333,-0l-0,-1.188c-1.275,-0.342 -2.329,-1.137 -2.329,-4.717l-0,-16.358Zm-10.283,11.417c-0,3.691 -4.73,5.962 -9.384,5.962c-2.033,0 -4.883,-0.85 -4.883,-3.633c-0,-3.296 3.229,-4.033 7.133,-4.542c4.354,-0.512 6.083,-1.025 7.134,-1.65l-0,3.863Zm43.908,-29.934l-10.513,0l0,40.78l10.513,-0l-0,-40.78Zm23.783,10.563l0,30.217l10.513,-0l-0,-30.217l-10.513,-0Zm10.513,-10.958l-10.513,-0l0,7.379l10.513,-0l-0,-7.379Zm55.841,18.912c0,-7.442 -10.283,-8.75 -15.912,-8.75c-8.188,0 -16.671,1.308 -17.871,10.567l10.133,-0c0.305,-1.759 1.2,-4.2 6.459,-4.2c2.704,-0 6.908,0.166 6.908,3.516c0,1.709 -2.029,2.217 -3.679,2.392l-9.463,1.075c-6.679,0.742 -11.633,3.75 -11.633,9.658c0,6.246 6.154,8.809 12.163,8.809c7.133,-0 10.508,-2.504 12.912,-4.384c0.225,1.709 0.375,2.163 0.975,3.58l11.337,-0l0,-1.188c-1.279,-0.342 -2.329,-1.137 -2.329,-4.717l0,-16.358Zm-10.283,11.417c0,3.691 -4.729,5.962 -9.388,5.962c-2.029,0 -4.879,-0.85 -4.879,-3.633c0,-3.296 3.229,-4.033 7.134,-4.542c4.354,-0.512 6.083,-1.025 7.133,-1.65l0,3.863Zm69.208,-10.054c0,-6.646 -6.083,-10.113 -13.895,-10.113c-7.58,0 -10.58,3.408 -12.009,5.229l-0.15,0l0,-4.433l-10.062,-0l-0,30.217l10.516,-0l0,-17.321c0,-4.604 3.6,-6.984 8.259,-6.984c6.675,0 6.829,3.746 6.829,5.959l-0,18.346l10.512,-0l0,-20.9Zm55.542,-1.363c-0,-7.442 -10.288,-8.75 -15.917,-8.75c-8.183,0 -16.666,1.308 -17.866,10.567l10.137,-0c0.3,-1.759 1.196,-4.2 6.454,-4.2c2.7,-0 6.904,0.166 6.904,3.516c0,1.709 -2.024,2.217 -3.674,2.392l-9.463,1.075c-6.683,0.742 -11.637,3.75 -11.637,9.658c-0,6.246 6.158,8.809 12.166,8.809c7.129,-0 10.508,-2.504 12.909,-4.384c0.225,1.709 0.379,2.163 0.974,3.58l11.338,-0l0,-1.188c-1.275,-0.342 -2.325,-1.137 -2.325,-4.717l-0,-16.358Zm-10.288,11.417c0,3.691 -4.729,5.962 -9.383,5.962c-2.025,0 -4.879,-0.85 -4.879,-3.633c-0,-3.296 3.225,-4.033 7.133,-4.542c4.35,-0.512 6.084,-1.025 7.129,-1.65l0,3.863Z" style="fill:#231f20;fill-rule:nonzero;"/><path d="M263.713,1027.18l-10.513,0l0,40.78l10.513,-0l-0,-40.78Zm22.854,10.563l-0,30.217l10.508,-0l0,-30.217l-10.508,-0Zm10.508,-10.958l-10.508,-0l-0,7.379l10.508,-0l0,-7.379Zm58.667,20.275c-0,-6.646 -6.08,-10.113 -13.892,-10.113c-7.579,0 -10.579,3.408 -12.008,5.229l-0.154,0l-0,-4.433l-10.059,-0l0,30.217l10.513,-0l-0,-17.321c-0,-4.604 3.6,-6.984 8.258,-6.984c6.679,0 6.833,3.746 6.833,5.959l0,18.346l10.509,-0l-0,-20.9Zm48.833,-9.317l0,4.492l-0.154,-0c-1.271,-1.988 -4.279,-5.288 -11.709,-5.288c-8.787,0 -16.595,5.117 -16.595,15.563c-0,10.566 7.587,15.629 17.191,15.629c6.313,-0 8.938,-2.221 10.663,-4.55l0.154,0.112l0,3.638c0,4.891 -2.708,6.937 -8.338,6.937c-6.075,0 -6.904,-1.533 -7.358,-3.066l-11.408,-0c0.45,6.416 9.158,9.083 17.416,9.083c19.667,-0 20.196,-8.688 20.196,-13.921l0,-28.629l-10.058,-0Zm-17.646,15.279c0,-7.042 4.354,-9.2 8.258,-9.2c5.859,0 9.009,3.975 9.009,8.863c-0,4.145 -1.8,8.745 -8.929,8.745c-6.234,0 -8.338,-4.541 -8.338,-8.408Zm85.467,-15.279l-10.508,-0l-0,17.442c-0,5.395 -4.655,6.87 -8.109,6.87c-3.229,0 -6.829,-0.908 -6.829,-5.566l-0,-18.746l-10.512,-0l-0,19.883c-0,7.721 5.704,11.138 13.587,11.138c5.554,-0 9.758,-1.825 12.163,-5.063l0.15,0l-0,4.259l10.058,-0l-0,-30.217Zm54.691,7.954c0,-7.442 -10.287,-8.75 -15.916,-8.75c-8.184,0 -16.667,1.308 -17.867,10.567l10.133,-0c0.3,-1.759 1.2,-4.2 6.459,-4.2c2.7,-0 6.904,0.166 6.904,3.516c-0,1.709 -2.029,2.217 -3.675,2.392l-9.462,1.075c-6.684,0.742 -11.642,3.75 -11.642,9.658c-0,6.246 6.158,8.809 12.166,8.809c7.134,-0 10.509,-2.504 12.913,-4.384c0.225,1.709 0.375,2.163 0.975,3.58l11.338,-0l-0,-1.188c-1.275,-0.342 -2.326,-1.137 -2.326,-4.717l0,-16.358Zm-10.287,11.417c-0,3.691 -4.729,5.962 -9.383,5.962c-2.029,0 -4.88,-0.85 -4.88,-3.633c0,-3.296 3.226,-4.033 7.134,-4.542c4.35,-0.512 6.079,-1.025 7.129,-1.65l-0,3.863Z" style="fill:#231f20;fill-rule:nonzero;"/><path d="M216.429,1037.69c4.884,-0 8.838,3.962 8.838,8.841c-0,4.88 -3.954,8.838 -8.838,8.838c-4.879,-0 -8.837,-3.958 -8.837,-8.838c-0,-4.879 3.958,-8.841 8.837,-8.841Z" style="fill:#231f20;"/><path d="M956.454,1037.69c4.879,-0 8.838,3.962 8.838,8.841c-0,4.88 -3.959,8.838 -8.838,8.838c-4.879,-0 -8.842,-3.958 -8.842,-8.838c0,-4.879 3.963,-8.841 8.842,-8.841Z" style="fill:#231f20;"/><path d="M490.15,0c61.083,0 97.146,61.083 125.85,112.6c35.079,63.783 60.592,103.038 118.487,103.038c29.438,-0 58.88,-16.192 86.109,-16.192c63.537,-0 127.079,73.35 153.083,243.6c12.263,72.125 17.171,165.592 -29.442,165.592c-45.137,-0 -127.812,-68.446 -188.404,-108.184c-53.729,-38.516 -118.491,-80.221 -165.591,-80.221c-36.8,0 -75.804,26.246 -101.563,51.517c-22.325,21.096 -49.8,43.421 -75.804,43.421c-42.442,-0 -41.458,-43.175 -36.8,-75.804c7.117,-38.763 18.646,-80.954 -2.942,-80.954c-44.158,-0 -97.883,74.575 -134.683,114.075c-65.746,73.591 -135.171,165.587 -206.071,165.587c-18.15,0 -32.379,-15.946 -32.379,-29.437c0,-93.467 134.437,-268.625 230.354,-393c81.45,-93.963 187.917,-215.638 259.796,-215.638Z" style="fill:#231f20;"/><path d="M506.308,24.542c9.588,2.783 17.2,6.708 25.388,12.421c23.2,17.762 39.046,42.487 53.721,67.366c19.937,34.492 37.3,70.921 65.458,99.738l8.233,7.516c12.4,9.95 24.321,16.58 39.467,21.58c16.537,4.495 32.596,5.962 49.629,4.129c13.321,-1.759 26.004,-5.213 38.925,-8.825c10.383,-2.896 20.875,-5.909 31.713,-6.475c3.504,-0.063 6.9,0.229 10.4,0.608c14.058,2.583 24.312,8.017 35.666,16.613c4.95,4.216 9.409,8.5 13.9,13.229c8.763,10.183 15.888,20.504 22.8,32.037c4.629,8.417 8.846,16.825 12.9,25.554c7.521,17.625 13.659,35.175 19.192,53.542c11.708,42.663 19.754,86.646 24.088,130.717c2,23.666 3.104,47.621 -1.321,71.091c-1.255,5.321 -4.225,19.25 -10.988,20.617c-8.887,0.571 -18.708,-3.558 -26.733,-6.854c-26.929,-12.113 -51.534,-28.833 -75.771,-45.513c-33.483,-23.279 -66.725,-46.904 -100.375,-69.908c-18.204,-12.312 -36.633,-23.975 -55.825,-34.654c-31.108,-16.788 -64.929,-32.058 -100.979,-31.254l-8.771,0.75c-40.129,5.85 -75.188,29.225 -103.883,56.887c-12.505,11.796 -25.721,23.425 -41.013,31.513c-7.825,3.887 -21.529,9.025 -29.646,3.225c-2.22,-1.917 -3.204,-4.467 -4.112,-7.196c-4.283,-15.829 -1.184,-34.475 1.892,-50.267c1.662,-8.508 3.341,-17.016 4.829,-25.537c3.025,-18.3 5.791,-36.675 -2.38,-54.054l-5.862,-7.867l-4.067,-3.421l-9.646,-4.629l-9.879,-1.358c-6.7,0.35 -12.383,1.175 -18.916,2.754c-8.104,2.641 -15.096,5.771 -22.579,9.879c-31.355,19.2 -55.967,47.258 -79.938,74.733c-22.379,25.817 -45.171,51.296 -67.667,77.042c-14.254,16.25 -28.658,32.304 -43.641,47.917c-24.284,24.633 -50.255,49.325 -82.817,62.441c-8.313,2.8 -17.35,5.35 -26.238,4.85c-3.375,-0.546 -8.149,-3.487 -8.92,-7.091c1.491,-34.396 16.587,-66.684 31.629,-97.038c38.612,-73.675 87.579,-141.3 137.308,-207.746c18.629,-24.687 37.446,-49.229 56.308,-73.708c23.821,-27.454 47.751,-54.763 72.392,-81.463c19.1,-20.4 38.517,-40.2 58.913,-59.287c26.996,-24.446 55.758,-49.138 90.071,-62.484c5.566,-1.754 10.612,-3.033 16.379,-3.883c7.383,-0.379 13.575,0.15 20.766,1.763Z" style="fill:#fff;"/></svg>